<?xml version="1.0" encoding="utf-8"?>
<!-- Generator: Adobe Illustrator 17.1.0, SVG Export Plug-In . SVG Version: 6.00 Build 0)  -->
<!DOCTYPE svg PUBLIC "-//W3C//DTD SVG 1.1//EN" "http://www.w3.org/Graphics/SVG/1.1/DTD/svg11.dtd">
<svg version="1.1" id="events-calendar" xmlns="http://www.w3.org/2000/svg" xmlns:xlink="http://www.w3.org/1999/xlink" x="0px"
	 y="0px" viewBox="0 0 1010 1010" enable-background="new 0 0 1010 1010" xml:space="preserve">
<g id="events-calendar-events-calendar">
	<path fill="#545454" d="M914.0117,94.687v56.5581c0,31.4492-25.5771,57.0274-57.0049,57.0274
		c-31.4502,0-57.0722-25.5782-57.0722-57.0274V94.687H679.3555v56.5581c0,31.4492-25.5995,57.0274-57.0049,57.0274
		c-31.4502,0-57.0498-25.5782-57.0498-57.0274V94.687H444.6997v56.5581c0,31.4492-25.5771,57.0274-57.0054,57.0274
		c-31.4506,0-57.0503-25.5782-57.0503-57.0274V94.687H210.0654v56.5581c0,31.4492-25.6216,57.0274-57.0947,57.0274
		c-31.4282,0-57.0054-25.5782-57.0054-57.0274V94.687H0v867.9468C0,988.7031,21.3184,1010,47.3442,1010h915.2896
		c26.0478,0,47.3662-21.2969,47.3662-47.3662V94.687H914.0117z M915.3125,883.751c0,17.3496-14.2129,31.5615-31.5625,31.5615h-757.5
		c-17.373,0-31.585-14.2119-31.585-31.5615V347.187h820.6475V883.751z"/>
	<g>
		<path fill="#545454" d="M158.1045,516.4102v-58.8208c0-8.6529,7.0835-15.6919,15.7134-15.6919h58.9106
			c8.6079,0,15.6919,7.039,15.6919,15.6919v58.8208c0,8.6748-7.084,15.7812-15.6919,15.7812h-58.9106
			C165.188,532.1914,158.1045,525.085,158.1045,516.4102z"/>
		<path fill="#545454" d="M309.2588,516.4102v-58.8208c0-8.6529,7.0386-15.6919,15.7139-15.6919h58.8437
			c8.6973,0,15.7139,7.039,15.7139,15.6919v58.8208c0,8.6748-7.0166,15.7812-15.7139,15.7812h-58.8437
			C316.2974,532.1914,309.2588,525.085,309.2588,516.4102z"/>
		<path fill="#DAB466" d="M158.1045,653.8457v-58.9102c0-8.6318,7.0835-15.7138,15.7134-15.7138h58.9106
			c8.6079,0,15.6919,7.082,15.6919,15.7138v58.9102c0,8.5635-7.084,15.6475-15.6919,15.6475h-58.9106
			C165.188,669.4932,158.1045,662.4092,158.1045,653.8457z"/>
		<path fill="#545454" d="M309.2588,653.8457v-58.9102c0-8.6318,7.0386-15.7138,15.7139-15.7138h58.8437
			c8.6973,0,15.7139,7.082,15.7139,15.7138v58.9102c0,8.5635-7.0166,15.6475-15.7139,15.6475h-58.8437
			C316.2974,669.4932,309.2588,662.4092,309.2588,653.8457z"/>
		<path fill="#545454" d="M158.1045,791.2148v-58.8671c0-8.6973,7.0835-15.7139,15.7134-15.7139h58.9106
			c8.6079,0,15.6919,7.0166,15.6919,15.7139v58.8671c0,8.6299-7.084,15.669-15.6919,15.669h-58.9106
			C165.188,806.8838,158.1045,799.8447,158.1045,791.2148z"/>
		<path fill="#DAB466" d="M309.2588,791.2148v-58.8671c0-8.6973,7.0386-15.7139,15.7139-15.7139h58.8437
			c8.6973,0,15.7139,7.0166,15.7139,15.7139v58.8671c0,8.6299-7.0166,15.669-15.7139,15.669h-58.8437
			C316.2974,806.8838,309.2588,799.8447,309.2588,791.2148z"/>
		<path fill="#545454" d="M459.3374,516.4102v-58.8208c0-8.6529,7.0615-15.6919,15.6919-15.6919h58.8652
			c8.6309,0,15.6914,7.039,15.6914,15.6919v58.8208c0,8.6748-7.0605,15.7812-15.6914,15.7812h-58.8652
			C466.3989,532.1914,459.3374,525.085,459.3374,516.4102z"/>
		<path fill="#545454" d="M610.4248,516.4102v-58.8208c0-8.6529,7.0391-15.6919,15.6914-15.6919h58.9102
			c8.6533,0,15.6699,7.039,15.6699,15.6919v58.8208c0,8.6748-7.0166,15.7812-15.6699,15.7812h-58.9102
			C617.4639,532.1914,610.4248,525.085,610.4248,516.4102z"/>
		<path fill="#545454" d="M761.5576,516.4102v-58.8208c0-8.6529,7.0615-15.6919,15.6904-15.6919h58.8897
			c8.6523,0,15.7139,7.039,15.7139,15.6919v58.8208c0,8.6748-7.0616,15.7812-15.7139,15.7812H777.248
			C768.6191,532.1914,761.5576,525.085,761.5576,516.4102z"/>
		<path fill="#545454" d="M459.3374,653.8457v-58.9102c0-8.6318,7.0615-15.7138,15.6919-15.7138h58.8652
			c8.6309,0,15.6914,7.082,15.6914,15.7138v58.9102c0,8.5635-7.0605,15.6475-15.6914,15.6475h-58.8652
			C466.3989,669.4932,459.3374,662.4092,459.3374,653.8457z"/>
		<path fill="#545454" d="M610.4248,653.8457v-58.9102c0-8.6318,7.0391-15.7138,15.6914-15.7138h58.9102
			c8.6533,0,15.6699,7.082,15.6699,15.7138v58.9102c0,8.5635-7.0166,15.6475-15.6699,15.6475h-58.9102
			C617.4639,669.4932,610.4248,662.4092,610.4248,653.8457z"/>
		<path fill="#DAB466" d="M761.5576,653.8457v-58.9102c0-8.6318,7.0615-15.7138,15.6904-15.7138h58.8897
			c8.6523,0,15.7139,7.082,15.7139,15.7138v58.9102c0,8.5635-7.0616,15.6475-15.7139,15.6475H777.248
			C768.6191,669.4932,761.5576,662.4092,761.5576,653.8457z"/>
	</g>
	<g>
		<path fill="#DAB466" d="M111.7466,151.2451V94.687V41.269C111.7466,18.4937,130.2178,0,152.9707,0
			c22.8203,0,41.2915,18.4937,41.2915,41.269v53.418v56.5581c0,22.7739-18.4712,41.2686-41.2915,41.2686
			C130.2178,192.5137,111.7466,174.019,111.7466,151.2451z"/>
		<path fill="#DAB466" d="M815.7383,151.2451V94.687V41.269C815.7383,18.4937,834.209,0,857.0068,0
			c22.7979,0,41.2022,18.4937,41.2022,41.269v53.418v56.5581c0,22.7739-18.4043,41.2686-41.2022,41.2686
			C834.209,192.5137,815.7383,174.019,815.7383,151.2451z"/>
		<path fill="#DAB466" d="M346.4253,151.2451V94.687V41.269c0-22.7753,18.4712-41.269,41.269-41.269
			c22.7754,0,41.2017,18.4937,41.2017,41.269v53.418v56.5581c0,22.7739-18.4263,41.2686-41.2017,41.2686
			C364.8965,192.5137,346.4253,174.019,346.4253,151.2451z"/>
		<path fill="#DAB466" d="M581.1035,151.2451V94.687V41.269C581.1035,18.4937,599.5752,0,622.3506,0
			c22.7978,0,41.2236,18.4937,41.2236,41.269v53.418v56.5581c0,22.7739-18.4258,41.2686-41.2236,41.2686
			C599.5752,192.5137,581.1035,174.019,581.1035,151.2451z"/>
	</g>
</g>
</svg>
