<?xml version="1.0" encoding="utf-8"?>
<!-- Generator: Adobe Illustrator 17.1.0, SVG Export Plug-In . SVG Version: 6.00 Build 0)  -->
<!DOCTYPE svg PUBLIC "-//W3C//DTD SVG 1.1//EN" "http://www.w3.org/Graphics/SVG/1.1/DTD/svg11.dtd">
<svg version="1.1" id="cloud-development" xmlns="http://www.w3.org/2000/svg" xmlns:xlink="http://www.w3.org/1999/xlink" x="0px"
	 y="0px" viewBox="0 0 1009.2847 1010" enable-background="new 0 0 1009.2847 1010" xml:space="preserve">
<g id="cloud-development-cloud-development">
	<path fill="#545454" d="M1009.2847,44.2183v302.185v35.3931v413.2915c0,24.373-19.8028,44.1748-44.2197,44.1748H44.1738
		C19.7573,839.2627,0,819.4609,0,795.0879V381.7964v-19.6231V44.2183C0,19.8018,19.7573,0,44.1738,0H965.065
		C989.4819,0,1009.2847,19.8018,1009.2847,44.2183z M933.0776,100.7129c0-21.0112-17.0253-37.9917-37.9462-37.9917H114.1538
		c-21.0117,0-37.9917,16.9805-37.9917,37.9917v261.4604v19.6231v356.1714c0,21.0107,16.98,37.9453,37.9917,37.9453h780.9776
		c20.9209,0,37.9462-16.9346,37.9462-37.9453V381.7964v-35.3931V100.7129z M704.5005,933.9727H626.188V858.123H383.0962v75.8497
		h-78.3579c-6.2275,0-11.2896,5.1074-11.2896,11.3339v53.3594c0,6.2715,5.0621,11.334,11.2896,11.334h399.7622
		c6.2275,0,11.335-5.0625,11.335-11.334v-53.3594C715.8355,939.0801,710.728,933.9727,704.5005,933.9727z"/>
	<path fill="#DAB466" d="M804.4526,493.5312c0,55.5538-45.0244,100.4893-100.4902,100.4893h-376.958
		c-67.5151,0-122.1728-54.7021-122.1728-122.1733c0-67.5601,54.6577-122.3521,122.1728-122.3521
		c9.0952,0,17.876,1.0308,26.4331,2.8672c18.5029-72.3091,84.0923-125.7578,162.1812-125.7578
		c92.5135,0,167.4658,74.9077,167.4658,167.3784c0,0.4483,0,0.7612,0,1.1201c6.7217-1.3896,13.7099-2.1953,20.8779-2.1953
		C759.4282,392.9077,804.4526,437.9775,804.4526,493.5312z"/>
</g>
</svg>
