<?xml version="1.0" encoding="utf-8"?>
<!-- Generator: Adobe Illustrator 17.1.0, SVG Export Plug-In . SVG Version: 6.00 Build 0)  -->
<!DOCTYPE svg PUBLIC "-//W3C//DTD SVG 1.1//EN" "http://www.w3.org/Graphics/SVG/1.1/DTD/svg11.dtd">
<svg version="1.1" id="budget-planning" xmlns="http://www.w3.org/2000/svg" xmlns:xlink="http://www.w3.org/1999/xlink" x="0px"
	 y="0px" viewBox="0 0 1009.9102 1010" enable-background="new 0 0 1009.9102 1010" xml:space="preserve">
<g id="budget-planning-budget-planning">
	<g>
		<path fill="#DAB466" d="M504.9551,1010C226.5215,1010,0,783.3438,0,504.7529C0,226.4316,226.5215,0,504.9551,0
			c278.4326,0,504.955,226.4316,504.955,504.7529C1009.9102,783.3438,783.3877,1010,504.9551,1010L504.9551,1010z M504.9551,112.23
			c-216.5474,0-392.7476,176.0659-392.7476,392.5229c0,216.7051,176.2002,393.0166,392.7476,393.0166
			c216.5684,0,392.748-176.3115,392.748-393.0166C897.7031,288.2959,721.5235,112.23,504.9551,112.23L504.9551,112.23z"/>
	</g>
	<path fill="#545454" d="M646.4141,684.2041c-27.2344,26.6289-65.0264,42.9463-113.6651,49.1338v60.1152h-53.8842v-58.6592
		c-43.1035-4.3935-77.958-18.2002-104.9453-41.4892c-26.7627-23.3106-43.9776-56.1475-51.3965-98.4453l97.2788-9.2119
		c3.9228,17.3271,11.499,32.2998,22.4375,44.6504c10.938,12.5292,23.2212,21.6064,36.6255,26.9199V522.3936
		c-48.8863-12.2608-84.503-30.3492-107.4112-54.647c-22.8178-24.6778-34.0698-54.1529-34.0698-89.1426
		c0-35.2803,13.0005-65.0474,38.5083-88.9409c25.8218-23.9834,60.0708-37.7681,102.9727-41.4444v-31.7163h53.8842v31.7163
		c39.6514,4.0567,70.9874,15.8023,94.4102,34.9888c23.5801,19.3662,38.2842,45.211,44.7402,77.2637l-94.1865,10.646
		c-5.6933-25.1709-20.5547-42.4307-44.9639-51.4854v126.0371c59.7569,13.9859,100.462,32.3438,122.0479,54.355
		c21.7412,22.5044,32.6123,50.8804,32.6123,85.6236C687.4092,624.8066,673.6465,657.418,646.4141,684.2041z M430.4717,374.749
		c0,11.5655,4.3486,22.1231,12.1709,31.8067c7.8003,9.6821,19.9492,17.8188,36.2222,23.7363V318.7129
		c-14.8164,4.2139-26.3599,11.5654-35.1465,21.8091C435.044,350.855,430.4717,362.4429,430.4717,374.749z M532.749,536.2012v125.79
		c18.8047-3.0713,33.8018-10.5117,45.6357-22.5273c11.6104-11.9903,17.5294-25.9776,17.5294-41.9815
		c0-14.5244-4.8428-26.875-14.6367-37.2978C571.3467,549.8516,555.1631,541.6475,532.749,536.2012z"/>
</g>
</svg>
