<?xml version="1.0" encoding="utf-8"?>
<!-- Generator: Adobe Illustrator 17.1.0, SVG Export Plug-In . SVG Version: 6.00 Build 0)  -->
<!DOCTYPE svg PUBLIC "-//W3C//DTD SVG 1.1//EN" "http://www.w3.org/Graphics/SVG/1.1/DTD/svg11.dtd">
<svg version="1.1" id="market-analysis" xmlns="http://www.w3.org/2000/svg" xmlns:xlink="http://www.w3.org/1999/xlink" x="0px"
	 y="0px" viewBox="0 0 1010 1009.957" enable-background="new 0 0 1010 1009.957" xml:space="preserve">
<g id="market-analysis-market-analysis">
	<polygon fill-rule="evenodd" clip-rule="evenodd" fill="#DAB466" points="680.873,0.2012 571.2158,0.2012 571.2158,443.873 
		680.873,443.873 680.873,0.2012 	"/>
	<path fill-rule="evenodd" clip-rule="evenodd" fill="#DAB466" d="M842.6006,128.083c-36.5811,0-73.1641,0-109.6572,0
		c0,105.2861,0,210.5039,0,315.79c36.4931,0,73.0761,0,109.6572,0C842.6006,338.5869,842.6006,233.3691,842.6006,128.083
		L842.6006,128.083z"/>
	<polygon fill-rule="evenodd" clip-rule="evenodd" fill="#DAB466" points="1004.3066,256.0303 894.6494,256.0303 894.6494,443.873 
		1004.3066,443.873 1004.3066,256.0303 	"/>
	<path fill-rule="evenodd" clip-rule="evenodd" fill="#545454" d="M505.0229,504.9785H1010
		c0,278.1104-226.8437,504.9785-504.9771,504.9785C226.8906,1009.957,0,783.0889,0,504.9785C0,226.8462,226.8906,0,505.0229,0
		V504.9785L505.0229,504.9785z"/>
</g>
</svg>
